<svg xmlns="http://www.w3.org/2000/svg" viewBox="0 0 400 200"><defs><style>.cls-1{fill:#78909c;}</style></defs><title>icons8-wii</title><g id="doble-ve"><path id="doble-ve-2" data-name="doble-ve" class="cls-1" d="M259.77,150,225,290.37s-21.5-84-28-112.35-27-28-27-28-20.44-.35-26.95,28-28,112.35-28,112.35L80.27,150H40L82.65,307.77S88.46,340,112.85,340,143,307.77,143,307.77L170,206l27,101.73S202.77,340,227.17,340s30.18-32.23,30.18-32.23L300,150Z" transform="translate(-40 -140)"/></g><g id="segundo-punto"><path id="segundo-punto-2" data-name="segundo-punto" class="cls-1" d="M440,159.93A20,20,0,1,1,420,140,20,20,0,0,1,440,159.93Z" transform="translate(-40 -140)"/></g><g id="segundo-palo"><rect id="segundo-palo-2" data-name="segundo-palo" class="cls-1" x="360.27" y="70" width="39.47" height="130"/></g><g id="primer-punto"><path id="primer-punto-2" data-name="primer-punto" class="cls-1" d="M370,159.93A20,20,0,1,1,350,140,20,20,0,0,1,370,159.93Z" transform="translate(-40 -140)"/></g><g id="primer-palo"><polyline id="primer-palo-2" data-name="primer-palo" class="cls-1" points="290 70 330 70 330 200 290 200"/></g></svg>