<?xml version="1.0" encoding="iso-8859-1"?>
<!-- Generator: Adobe Illustrator 19.0.0, SVG Export Plug-In . SVG Version: 6.00 Build 0)  -->
<svg version="1.1" id="Capa_1" xmlns="http://www.w3.org/2000/svg" xmlns:xlink="http://www.w3.org/1999/xlink" x="0px" y="0px"
	 viewBox="0 0 480 480" style="enable-background:new 0 0 480 480;" xml:space="preserve">
<g>
	<g>
		<path d="M184,0H72C58.745,0,48,10.745,48,24v432c0,13.255,10.745,24,24,24h112c13.255,0,24-10.745,24-24V24
			C208,10.745,197.255,0,184,0z M192,456c0,4.418-3.582,8-8,8H72c-4.418,0-8-3.582-8-8V24c0-4.418,3.582-8,8-8h112
			c4.418,0,8,3.582,8,8V456z"/>
	</g>
</g>
<g>
	<g>
		<path d="M164,56h-12V44c0-6.627-5.373-12-12-12h-24c-6.627,0-12,5.373-12,12v12H92c-6.627,0-12,5.373-12,12v24
			c0,6.627,5.373,12,12,12h12v12c0,6.627,5.373,12,12,12h24c6.627,0,12-5.373,12-12v-12h12c6.627,0,12-5.373,12-12V68
			C176,61.373,170.627,56,164,56z M160,88h-12c-6.627,0-12,5.373-12,12v12h-16v-12c0-6.627-5.373-12-12-12H96V72h12
			c6.627,0,12-5.373,12-12V48h16v12c0,6.627,5.373,12,12,12h12V88z"/>
	</g>
</g>
<g>
	<g>
		<circle cx="128" cy="184" r="16"/>
	</g>
</g>
<g>
	<g>
		<circle cx="128" cy="248" r="16"/>
	</g>
</g>
<g>
	<g>
		<circle cx="96" cy="216" r="16"/>
	</g>
</g>
<g>
	<g>
		<circle cx="160" cy="216" r="16"/>
	</g>
</g>
<g>
	<g>
		<rect x="120" y="360" width="16" height="16"/>
	</g>
</g>
<g>
	<g>
		<rect x="120" y="392" width="16" height="16"/>
	</g>
</g>
<g>
	<g>
		<path d="M408,0H296c-13.255,0-24,10.745-24,24v432c0,13.255,10.745,24,24,24h112c13.255,0,24-10.745,24-24V24
			C432,10.745,421.255,0,408,0z M416,456c0,4.418-3.582,8-8,8H296c-4.418,0-8-3.582-8-8V24c0-4.418,3.582-8,8-8h112
			c4.418,0,8,3.582,8,8V456z"/>
	</g>
</g>
<g>
	<g>
		<path d="M388,56h-12V44c0-6.627-5.373-12-12-12h-24c-6.627,0-12,5.373-12,12v12h-12c-6.627,0-12,5.373-12,12v24
			c0,6.627,5.373,12,12,12h12v12c0,6.627,5.373,12,12,12h24c6.627,0,12-5.373,12-12v-12h12c6.627,0,12-5.373,12-12V68
			C400,61.373,394.627,56,388,56z M384,88h-12c-6.627,0-12,5.373-12,12v12h-16v-12c0-6.627-5.373-12-12-12h-12V72h12
			c6.627,0,12-5.373,12-12V48h16v12c0,6.627,5.373,12,12,12h12V88z"/>
	</g>
</g>
<g>
	<g>
		<circle cx="352" cy="184" r="16"/>
	</g>
</g>
<g>
	<g>
		<circle cx="352" cy="248" r="16"/>
	</g>
</g>
<g>
	<g>
		<circle cx="320" cy="216" r="16"/>
	</g>
</g>
<g>
	<g>
		<circle cx="384" cy="216" r="16"/>
	</g>
</g>
<g>
	<g>
		<rect x="344" y="360" width="16" height="16"/>
	</g>
</g>
<g>
	<g>
		<rect x="344" y="392" width="16" height="16"/>
	</g>
</g>
<g>
</g>
<g>
</g>
<g>
</g>
<g>
</g>
<g>
</g>
<g>
</g>
<g>
</g>
<g>
</g>
<g>
</g>
<g>
</g>
<g>
</g>
<g>
</g>
<g>
</g>
<g>
</g>
<g>
</g>
</svg>
